<svg preserveAspectRatio="none" overflow="visible" style="display: block;" width="24.1978" height="31.4961" viewBox="0 0 24.1978 31.4961" fill="none" xmlns="http://www.w3.org/2000/svg">
<g id="Group 2147231812">
<path id="Vector 698" d="M9.62433e-05 0V31.496H2.71603V2.80354H11.039C17.382 2.90867 16.5731 7.54911 15.3758 9.85619H18.5297C20.5273 3.26788 15.5072 0.700885 12.8351 0H9.62433e-05Z" fill="white"/>
<path id="Vector 700" d="M5.47662 9.85557V25.9321H8.14874V17.2587L12.7483 22.5153L18.0487 15.4188C19.7659 15.9095 20.8669 18.4268 21.2027 19.6242C22.4994 25.6868 17.8589 28.1954 15.3766 28.6919L5.47662 28.9985V31.4516H14.5881C22.7534 30.5755 24.3859 24.0485 24.1815 20.8945C24.3217 15.6028 19.4505 12.7905 16.9974 12.0458L12.3102 18.2224L5.47662 9.85557Z" fill="white"/>
</g>
</svg>
