<svg preserveAspectRatio="none" overflow="visible" style="display: block;" width="21.953" height="20.5526" viewBox="0 0 21.953 20.5526" fill="none" xmlns="http://www.w3.org/2000/svg">
<g id="Discount Shape 2">
<g id="Vector">
<path d="M6.97656 7.27625C6.97656 7.82853 7.42428 8.27625 7.97656 8.27625C8.52885 8.27625 8.97656 7.82853 8.97656 7.27625C8.97656 6.72396 8.52885 6.27625 7.97656 6.27625C7.42428 6.27625 6.97656 6.72396 6.97656 7.27625Z" fill="#2D264B"/>
<path d="M12.9766 13.2762C12.9766 13.8285 13.4243 14.2762 13.9766 14.2762C14.5288 14.2762 14.9766 13.8285 14.9766 13.2762C14.9766 12.724 14.5288 12.2762 13.9766 12.2762C13.4243 12.2762 12.9766 12.724 12.9766 13.2762Z" fill="#2D264B"/>
</g>
<path id="Vector_2" d="M7.44617 12.746C7.15327 13.0388 7.15327 13.5137 7.44617 13.8066C7.73906 14.0995 8.21393 14.0995 8.50683 13.8066L7.9765 13.2763L7.44617 12.746ZM14.1637 8.14976C14.4566 7.85686 14.4566 7.38199 14.1637 7.0891C13.8708 6.7962 13.3959 6.7962 13.103 7.0891L13.6334 7.61943L14.1637 8.14976ZM6.08104 19.2513L5.73871 19.9186V19.9186L6.08104 19.2513ZM5.6516 19.0034L5.24486 19.6335L5.6516 19.0034ZM16.3014 19.0034L15.8946 18.3733V18.3733L16.3014 19.0034ZM15.872 19.2513L16.2143 19.9186V19.9186L15.872 19.2513ZM21.1968 10.0283L21.9459 9.99115L21.1968 10.0283ZM21.1968 10.5242L20.4478 10.487L21.1968 10.5242ZM15.872 1.30123L16.2143 0.633916V0.633916L15.872 1.30123ZM16.3014 1.54917L16.7081 0.919044L16.3014 1.54917ZM5.6516 1.54917L6.05835 2.17929V2.17929L5.6516 1.54917ZM6.08104 1.30123L5.73871 0.633916V0.633916L6.08104 1.30123ZM0.756151 10.0283L1.50523 10.0655L0.756151 10.0283ZM0.756151 10.5242L0.00707376 10.5614L0.756151 10.5242ZM7.9765 13.2763L8.50683 13.8066L14.1637 8.14976L13.6334 7.61943L13.103 7.0891L7.44617 12.746L7.9765 13.2763ZM10.9765 19.8026V19.0526C9.68971 19.0526 8.77336 19.0519 8.04324 18.9866C7.32742 18.9227 6.84459 18.8001 6.42338 18.584L6.08104 19.2513L5.73871 19.9186C6.39203 20.2538 7.08328 20.4068 7.90974 20.4807C8.72189 20.5532 9.716 20.5526 10.9765 20.5526V19.8026ZM2.7265 15.0394L2.07698 15.4144C2.70723 16.506 3.20368 17.3673 3.67261 18.0344C4.14979 18.7132 4.62795 19.2353 5.24486 19.6335L5.6516 19.0034L6.05835 18.3733C5.66061 18.1165 5.31304 17.7597 4.89974 17.1717C4.47818 16.572 4.01941 15.7788 3.37602 14.6644L2.7265 15.0394ZM6.08104 19.2513L6.42338 18.584C6.29829 18.5198 6.17646 18.4495 6.05835 18.3733L5.6516 19.0034L5.24486 19.6335C5.40466 19.7367 5.56948 19.8318 5.73871 19.9186L6.08104 19.2513ZM19.2265 15.0394L18.577 14.6644C17.9336 15.7788 17.4748 16.572 17.0533 17.1717C16.64 17.7597 16.2924 18.1165 15.8946 18.3733L16.3014 19.0034L16.7081 19.6335C17.325 19.2353 17.8032 18.7132 18.2804 18.0344C18.7493 17.3673 19.2458 16.506 19.876 15.4144L19.2265 15.0394ZM10.9765 19.8026V20.5526C12.237 20.5526 13.2311 20.5532 14.0433 20.4807C14.8697 20.4068 15.561 20.2538 16.2143 19.9186L15.872 19.2513L15.5296 18.584C15.1084 18.8001 14.6256 18.9227 13.9098 18.9866C13.1796 19.0519 12.2633 19.0526 10.9765 19.0526V19.8026ZM16.3014 19.0034L15.8946 18.3733C15.7765 18.4495 15.6547 18.5198 15.5296 18.584L15.872 19.2513L16.2143 19.9186C16.3835 19.8318 16.5483 19.7367 16.7081 19.6335L16.3014 19.0034ZM19.2265 5.51314L18.577 5.88814C19.2204 7.00253 19.6779 7.79646 19.9865 8.46138C20.289 9.11327 20.4243 9.59271 20.4478 10.0655L21.1968 10.0283L21.9459 9.99115C21.9095 9.25779 21.6964 8.58263 21.3471 7.82997C21.0039 7.09034 20.5063 6.22976 19.876 5.13814L19.2265 5.51314ZM19.2265 15.0394L19.876 15.4144C20.5063 14.3228 21.0039 13.4622 21.3471 12.7226C21.6964 11.9699 21.9095 11.2948 21.9459 10.5614L21.1968 10.5242L20.4478 10.487C20.4243 10.9599 20.289 11.4393 19.9865 12.0912C19.6779 12.7561 19.2204 13.55 18.577 14.6644L19.2265 15.0394ZM21.1968 10.0283L20.4478 10.0655C20.4547 10.2059 20.4547 10.3466 20.4478 10.487L21.1968 10.5242L21.9459 10.5614C21.9554 10.3714 21.9554 10.1811 21.9459 9.99115L21.1968 10.0283ZM10.9765 0.75V1.5C12.2633 1.5 13.1796 1.50069 13.9098 1.56593C14.6256 1.62989 15.1084 1.75246 15.5296 1.96855L15.872 1.30123L16.2143 0.633916C15.561 0.298768 14.8697 0.145727 14.0433 0.0718803C13.2311 -0.000688493 12.237 1.78814e-07 10.9765 2.38419e-07V0.75ZM19.2265 5.51314L19.876 5.13814C19.2458 4.04652 18.7493 3.18525 18.2804 2.51819C17.8032 1.83938 17.325 1.31726 16.7081 0.919044L16.3014 1.54917L15.8946 2.17929C16.2924 2.43604 16.64 2.79289 17.0533 3.38083C17.4748 3.98051 17.9336 4.77375 18.577 5.88814L19.2265 5.51314ZM15.872 1.30123L15.5296 1.96855C15.6547 2.03271 15.7765 2.10305 15.8946 2.17929L16.3014 1.54917L16.7081 0.919044C16.5483 0.815892 16.3835 0.720733 16.2143 0.633916L15.872 1.30123ZM2.7265 5.51314L3.37602 5.88814C4.01941 4.77375 4.47818 3.98051 4.89974 3.38083C5.31304 2.79289 5.66061 2.43604 6.05835 2.17929L5.6516 1.54917L5.24486 0.919044C4.62795 1.31726 4.14979 1.83938 3.67261 2.51819C3.20368 3.18525 2.70722 4.04652 2.07698 5.13814L2.7265 5.51314ZM10.9765 0.75V2.38419e-07C9.716 2.98023e-07 8.72189 -0.000688314 7.90974 0.0718805C7.08328 0.145728 6.39203 0.298769 5.73871 0.633916L6.08104 1.30123L6.42337 1.96855C6.84459 1.75246 7.32742 1.62989 8.04324 1.56593C8.77336 1.50069 9.68971 1.5 10.9765 1.5V0.75ZM5.6516 1.54917L6.05835 2.17929C6.17646 2.10305 6.29829 2.03272 6.42337 1.96855L6.08104 1.30123L5.73871 0.633916C5.56948 0.720733 5.40466 0.815892 5.24486 0.919044L5.6516 1.54917ZM2.7265 5.51314L2.07698 5.13814C1.44673 6.22976 0.949079 7.09034 0.60585 7.82997C0.256574 8.58263 0.043484 9.25779 0.0070737 9.99115L0.756151 10.0283L1.50523 10.0655C1.5287 9.59271 1.66397 9.11327 1.96648 8.46138C2.27504 7.79646 2.73262 7.00253 3.37602 5.88814L2.7265 5.51314ZM2.7265 15.0394L3.37602 14.6644C2.73262 13.55 2.27504 12.7561 1.96648 12.0912C1.66397 11.4393 1.5287 10.9599 1.50523 10.487L0.756151 10.5242L0.00707376 10.5614C0.043484 11.2948 0.256575 11.9699 0.60585 12.7226C0.94908 13.4622 1.44673 14.3228 2.07698 15.4144L2.7265 15.0394ZM0.756151 10.0283L0.0070737 9.99115C-0.0023579 10.1811 -0.0023579 10.3714 0.00707376 10.5614L0.756151 10.5242L1.50523 10.487C1.49826 10.3466 1.49826 10.2059 1.50523 10.0655L0.756151 10.0283Z" fill="#2D264B"/>
</g>
</svg>
